<svg width="32" height="32" viewBox="0 0 24 24" fill="none" xmlns="http://www.w3.org/2000/svg">
  <defs>
    <linearGradient id="g" x1="0" y1="0" x2="1" y2="1">
      <stop offset="0%" stop-color="#38bdf8"/>
      <stop offset="100%" stop-color="#6366f1"/>
    </linearGradient>
  </defs>
  <path
    d="M12 12 C11 9.5 10.2 5.5 12 1 C13.8 5.5 13 9.5 12 12 M12 12 C14.5 13 18.5 13.8 23 12 C18.5 10.2 14.5 11 12 12 M12 12 C13 14.5 13.8 18.5 12 23 C10.2 18.5 11 14.5 12 12 M12 12 C9.5 11 5.5 10.2 1 12 C5.5 13.8 9.5 13 12 12"
    fill="url(#g)"
  />
</svg>
